# Blender v3.4.1 OBJ File: ''
# www.blender.org
mtllib Hexagon.mtl
o 큐브
v 1.105172 -0.100000 0.638071
v 1.105172 0.100000 0.638071
v -1.105172 -0.100000 0.638071
v -1.105172 0.100000 0.638071
v 1.105172 -0.100000 -0.638071
v 1.105172 0.100000 -0.638071
v -1.105172 -0.100000 -0.638071
v -1.105172 0.100000 -0.638071
v 0.000000 -0.100000 1.276142
v 0.000000 0.100000 1.276142
v -0.000000 -0.100000 -1.276142
v -0.000000 0.100000 -1.276142
v 1.106660 0.099712 -0.643866
v 0.001488 0.099712 -1.281937
vt 0.375000 0.125000
vt 0.625000 0.125000
vt 0.625000 0.250000
vt 0.375000 0.250000
vt 0.625000 0.500000
vt 0.375000 0.500000
vt 0.375000 0.625000
vt 0.625000 0.625000
vt 0.625000 0.750000
vt 0.375000 0.750000
vt 0.625000 1.000000
vt 0.375000 1.000000
vt 0.375000 0.000000
vt 0.625000 0.000000
vt 0.625000 0.625000
vt 0.625000 0.750000
vn -0.5000 0.0000 0.8660
vn -1.0000 0.0000 0.0000
vn 0.5000 0.0000 -0.8660
vn 1.0000 0.0000 0.0000
vn -0.5000 0.0000 -0.8660
vn 0.5000 0.0000 0.8660
vn -0.0249 -0.9988 0.0432
vn 0.0000 1.0000 -0.0001
vn 0.0000 -1.0000 0.0000
usemtl None
s off
f 9/1/1 10/2/1 4/3/1 3/4/1
f 3/4/2 4/3/2 8/5/2 7/6/2
f 11/7/3 12/8/3 6/9/3 5/10/3
f 5/10/4 6/9/4 2/11/4 1/12/4
f 7/6/5 8/5/5 12/8/5 11/7/5
f 1/13/6 2/14/6 10/2/6 9/1/6
f 6/9/7 12/8/7 14/15/7 13/16/7
f 4/3/8 10/2/8 2/14/8 6/9/8 13/16/8 14/15/8 12/8/8 8/5/8
f 9/1/9 3/4/9 7/6/9 11/7/9 5/10/9 1/12/9
